<svg width="17" height="19" viewBox="0 0 17 19" fill="none" xmlns="http://www.w3.org/2000/svg">
<g filter="url(#filter0_d_10_598)">
<path d="M14.3239 0.580811C14.6149 0.212667 15.0104 0.00387037 15.4239 5.3266e-05C15.8373 -0.00376383 16.2352 0.197709 16.5305 0.56044C16.8258 0.923171 16.9946 1.41766 16.9999 1.93585C17.0052 2.45404 16.8466 2.95378 16.5588 3.32587L8.23119 16.3735C8.08813 16.5666 7.91549 16.7215 7.7236 16.8291C7.5317 16.9367 7.32447 16.9947 7.11429 16.9997C6.90411 17.0046 6.69529 16.9565 6.50029 16.858C6.30529 16.7596 6.12811 16.6129 5.97934 16.4268L0.458077 9.50957C0.164676 9.14167 -9.95546e-05 8.64276 4.51266e-08 8.12259C9.96448e-05 7.60243 0.165066 7.10361 0.458608 6.73589C0.752151 6.36817 1.15022 6.16165 1.56526 6.16178C1.98029 6.1619 2.37828 6.36865 2.67168 6.73656L7.03835 12.2107L14.2825 0.642049C14.2957 0.620998 14.3098 0.600991 14.325 0.582142L14.3239 0.580811Z" fill="white"/>
</g>
<defs>
<filter id="filter0_d_10_598" x="0" y="0" width="17" height="19" filterUnits="userSpaceOnUse" color-interpolation-filters="sRGB">
<feFlood flood-opacity="0" result="BackgroundImageFix"/>
<feColorMatrix in="SourceAlpha" type="matrix" values="0 0 0 0 0 0 0 0 0 0 0 0 0 0 0 0 0 0 127 0" result="hardAlpha"/>
<feOffset dy="2"/>
<feColorMatrix type="matrix" values="0 0 0 0 0 0 0 0 0 0 0 0 0 0 0 0 0 0 0.1 0"/>
<feBlend mode="normal" in2="BackgroundImageFix" result="effect1_dropShadow_10_598"/>
<feBlend mode="normal" in="SourceGraphic" in2="effect1_dropShadow_10_598" result="shape"/>
</filter>
</defs>
</svg>
